<mxfile host="app.diagrams.net" modified="2021-09-27T01:59:41.987Z" agent="5.0 (Windows NT 10.0; Win64; x64) AppleWebKit/537.36 (KHTML, like Gecko) Chrome/94.0.4606.54 Safari/537.36" etag="FRE5j6ZfN1Un3f-pMLdf" version="15.3.4" type="github">
  <diagram id="5KZ0ZVmHSSi7vN0LWAgk" name="Page-1">
    <mxGraphModel dx="1342" dy="343" grid="1" gridSize="10" guides="1" tooltips="1" connect="1" arrows="1" fold="1" page="1" pageScale="1" pageWidth="850" pageHeight="1100" math="0" shadow="0">
      <root>
        <mxCell id="0" />
        <mxCell id="1" parent="0" />
        <mxCell id="Va2hPkyqXW4dqxcvswAF-1" value="FRunnable" style="rounded=1;whiteSpace=wrap;html=1;hachureGap=4;pointerEvents=0;" parent="1" vertex="1">
          <mxGeometry x="130" y="50" width="130" height="50" as="geometry" />
        </mxCell>
        <mxCell id="Va2hPkyqXW4dqxcvswAF-3" value="FQueuedThread" style="whiteSpace=wrap;html=1;rounded=1;hachureGap=4;" parent="1" vertex="1">
          <mxGeometry x="130" y="180" width="120" height="60" as="geometry" />
        </mxCell>
        <mxCell id="Va2hPkyqXW4dqxcvswAF-14" value="FRunnableThread" style="rounded=0;whiteSpace=wrap;html=1;hachureGap=4;pointerEvents=0;" parent="1" vertex="1">
          <mxGeometry x="410" y="180" width="120" height="60" as="geometry" />
        </mxCell>
        <mxCell id="Va2hPkyqXW4dqxcvswAF-22" value="Relation" style="endArrow=open;html=1;endSize=12;startArrow=diamondThin;startSize=14;startFill=0;edgeStyle=orthogonalEdgeStyle;sourcePerimeterSpacing=8;targetPerimeterSpacing=8;" parent="1" edge="1">
          <mxGeometry x="0.25" relative="1" as="geometry">
            <mxPoint x="250" y="209.5" as="sourcePoint" />
            <mxPoint x="410" y="209.5" as="targetPoint" />
            <mxPoint as="offset" />
          </mxGeometry>
        </mxCell>
        <mxCell id="Va2hPkyqXW4dqxcvswAF-25" value="Extends" style="endArrow=block;endSize=16;endFill=0;html=1;sourcePerimeterSpacing=8;targetPerimeterSpacing=8;" parent="1" edge="1">
          <mxGeometry width="160" relative="1" as="geometry">
            <mxPoint x="189.5" y="190" as="sourcePoint" />
            <mxPoint x="190" y="100" as="targetPoint" />
          </mxGeometry>
        </mxCell>
        <mxCell id="Va2hPkyqXW4dqxcvswAF-27" value="Extends" style="endArrow=block;endSize=16;endFill=0;html=1;sourcePerimeterSpacing=8;targetPerimeterSpacing=8;entryX=1;entryY=0.5;entryDx=0;entryDy=0;" parent="1" target="Va2hPkyqXW4dqxcvswAF-1" edge="1">
          <mxGeometry width="160" relative="1" as="geometry">
            <mxPoint x="345" y="74.5" as="sourcePoint" />
            <mxPoint x="505" y="74.5" as="targetPoint" />
          </mxGeometry>
        </mxCell>
        <mxCell id="Va2hPkyqXW4dqxcvswAF-28" value="FRenderingThread" style="html=1;hachureGap=4;pointerEvents=0;" parent="1" vertex="1">
          <mxGeometry x="350" y="50" width="110" height="50" as="geometry" />
        </mxCell>
        <mxCell id="Va2hPkyqXW4dqxcvswAF-29" value="FRunnable线程执行体，有几种下线程状态，子类 FRenderingThread。&lt;br&gt;&lt;br&gt;&lt;span style=&quot;text-align: center&quot;&gt;FRenderingThread 线程基类，引导FRunnable 并改变线程状态。&lt;br&gt;子类：FRunnableThreadWin，&lt;/span&gt;&lt;span style=&quot;text-align: center&quot;&gt;FRunnableThreadAndroid，&lt;/span&gt;&lt;span style=&quot;text-align: center&quot;&gt;FRunnableThreadApple，&lt;br&gt;&lt;/span&gt;&lt;span style=&quot;text-align: center&quot;&gt;FFakeThread，&lt;br&gt;window平台由&lt;/span&gt;FRunnableThreadWin" style="text;html=1;strokeColor=none;fillColor=none;align=left;verticalAlign=top;whiteSpace=wrap;rounded=0;hachureGap=4;pointerEvents=0;horizontal=1;" parent="1" vertex="1">
          <mxGeometry x="581" y="30" width="210" height="170" as="geometry" />
        </mxCell>
        <mxCell id="Va2hPkyqXW4dqxcvswAF-31" value="" style="endArrow=none;html=1;startSize=14;endSize=14;sourcePerimeterSpacing=8;targetPerimeterSpacing=8;exitX=0;exitY=0;exitDx=0;exitDy=0;" parent="1" source="Va2hPkyqXW4dqxcvswAF-14" edge="1">
          <mxGeometry width="50" height="50" relative="1" as="geometry">
            <mxPoint x="330" y="170" as="sourcePoint" />
            <mxPoint x="260" y="100" as="targetPoint" />
          </mxGeometry>
        </mxCell>
        <mxCell id="pEPiHS6GOgjcZePiM0A9-1" value="1" style="endArrow=open;html=1;endSize=12;startArrow=diamondThin;startSize=14;startFill=0;edgeStyle=orthogonalEdgeStyle;align=left;verticalAlign=bottom;sourcePerimeterSpacing=8;targetPerimeterSpacing=8;" edge="1" parent="1" target="pEPiHS6GOgjcZePiM0A9-2">
          <mxGeometry x="-1" y="3" relative="1" as="geometry">
            <mxPoint x="530" y="209.5" as="sourcePoint" />
            <mxPoint x="630" y="210" as="targetPoint" />
            <Array as="points">
              <mxPoint x="600" y="210" />
              <mxPoint x="600" y="210" />
            </Array>
          </mxGeometry>
        </mxCell>
        <mxCell id="pEPiHS6GOgjcZePiM0A9-2" value="FThreadManager" style="html=1;hachureGap=4;pointerEvents=0;align=center;verticalAlign=middle;" vertex="1" parent="1">
          <mxGeometry x="575" y="190" width="110" height="50" as="geometry" />
        </mxCell>
        <mxCell id="pEPiHS6GOgjcZePiM0A9-3" value="FRunnableThreadWin" style="whiteSpace=wrap;html=1;rounded=0;hachureGap=4;" vertex="1" parent="1">
          <mxGeometry x="410" y="320" width="120" height="60" as="geometry" />
        </mxCell>
        <mxCell id="pEPiHS6GOgjcZePiM0A9-6" value="Extends" style="endArrow=block;endSize=16;endFill=0;html=1;sourcePerimeterSpacing=8;targetPerimeterSpacing=8;entryX=0.5;entryY=1;entryDx=0;entryDy=0;exitX=0.5;exitY=0;exitDx=0;exitDy=0;" edge="1" parent="1" source="pEPiHS6GOgjcZePiM0A9-3" target="Va2hPkyqXW4dqxcvswAF-14">
          <mxGeometry width="160" relative="1" as="geometry">
            <mxPoint x="340" y="290" as="sourcePoint" />
            <mxPoint x="500" y="290" as="targetPoint" />
          </mxGeometry>
        </mxCell>
        <mxCell id="pEPiHS6GOgjcZePiM0A9-7" value="FFakeThread&lt;br&gt;&lt;font style=&quot;font-size: 8px&quot; color=&quot;#ff33ff&quot;&gt;不使用多线程情况下才使用&lt;/font&gt;" style="html=1;hachureGap=4;pointerEvents=0;align=center;verticalAlign=middle;" vertex="1" parent="1">
          <mxGeometry x="260" y="322.5" width="140" height="55" as="geometry" />
        </mxCell>
        <mxCell id="pEPiHS6GOgjcZePiM0A9-8" value="Extends" style="endArrow=block;endSize=16;endFill=0;html=1;sourcePerimeterSpacing=8;targetPerimeterSpacing=8;exitX=0.5;exitY=0;exitDx=0;exitDy=0;entryX=0;entryY=1;entryDx=0;entryDy=0;" edge="1" parent="1" source="pEPiHS6GOgjcZePiM0A9-7" target="Va2hPkyqXW4dqxcvswAF-14">
          <mxGeometry width="160" relative="1" as="geometry">
            <mxPoint x="340" y="390" as="sourcePoint" />
            <mxPoint x="360" y="330" as="targetPoint" />
          </mxGeometry>
        </mxCell>
        <mxCell id="pEPiHS6GOgjcZePiM0A9-9" value="FRunnableThreadAndroid" style="html=1;hachureGap=4;pointerEvents=0;align=center;verticalAlign=middle;" vertex="1" parent="1">
          <mxGeometry x="540" y="320" width="170" height="62.5" as="geometry" />
        </mxCell>
        <mxCell id="pEPiHS6GOgjcZePiM0A9-10" value="Extends" style="endArrow=block;endSize=16;endFill=0;html=1;sourcePerimeterSpacing=8;targetPerimeterSpacing=8;exitX=0.371;exitY=-0.016;exitDx=0;exitDy=0;exitPerimeter=0;" edge="1" parent="1" source="pEPiHS6GOgjcZePiM0A9-9">
          <mxGeometry width="160" relative="1" as="geometry">
            <mxPoint x="650" y="323" as="sourcePoint" />
            <mxPoint x="510" y="250" as="targetPoint" />
          </mxGeometry>
        </mxCell>
        <mxCell id="pEPiHS6GOgjcZePiM0A9-11" value="FFakeThread&lt;br&gt;&lt;font style=&quot;font-size: 8px&quot; color=&quot;#ff33ff&quot;&gt;不使用多线程情况下才使用&lt;/font&gt;" style="html=1;hachureGap=4;pointerEvents=0;align=center;verticalAlign=middle;" vertex="1" parent="1">
          <mxGeometry x="720" y="322.5" width="140" height="55" as="geometry" />
        </mxCell>
        <mxCell id="pEPiHS6GOgjcZePiM0A9-12" value="Extends" style="endArrow=block;endSize=16;endFill=0;html=1;sourcePerimeterSpacing=8;targetPerimeterSpacing=8;exitX=0.5;exitY=0;exitDx=0;exitDy=0;entryX=1;entryY=1;entryDx=0;entryDy=0;" edge="1" parent="1" source="pEPiHS6GOgjcZePiM0A9-11" target="Va2hPkyqXW4dqxcvswAF-14">
          <mxGeometry x="-0.1093" y="-6" width="160" relative="1" as="geometry">
            <mxPoint x="800" y="390" as="sourcePoint" />
            <mxPoint x="870" y="240" as="targetPoint" />
            <mxPoint as="offset" />
          </mxGeometry>
        </mxCell>
      </root>
    </mxGraphModel>
  </diagram>
</mxfile>
